<svg width="1029" height="683" viewBox="0 0 1029 683" xmlns="http://www.w3.org/2000/svg">
    <g>
        <path d="M144.673 477.824C159.421 476.179 172.34 477.824 182.673 477.824C193.006 477.824 222.408 481.149 247.673 484.824C304.809 493.135 335.161 506.495 391.673 518.324C449.213 530.369 481.086 540.975 539.673 545.824C587.544 549.787 614.727 548.744 662.673 545.824C733.844 541.49 860.673 512.324 860.673 512.324C860.673 512.324 875.173 521.324 897.673 529.824C928.178 541.348 942.673 541.324 976.173 534.824C995.146 531.143 1004.67 526.824 1013.67 509.324C1019.49 498.017 1016.13 489.122 1008.67 478.824C1001.64 469.115 993.162 465.324 981.173 465.324C965.673 465.324 964.66 471.748 951.673 470.324C938.697 468.902 927.89 465.577 916.173 459.824C897.164 450.491 886.797 446.026 875.173 428.324C866.383 414.94 860.673 410 857.5 393C854.097 374.765 853 362 857.5 348C861.672 335.022 865.318 324 880 315.5C907.963 299.311 927.173 300 951.673 297C966.365 295.201 989 289 1000.5 278.5C1010.97 268.939 1013.33 252.676 1010.5 241C1008.31 231.938 1004.65 225.5 998.173 221.824C987.071 215.524 970.169 220.84 959.173 227.324C939.673 238.824 925.49 241.17 906.173 244.324C881.673 248.324 869.221 251.368 846.5 244.324C825.045 237.673 808.173 217.824 808.173 217.824C808.173 217.824 825.154 176.123 839.673 151.324C855.224 124.762 862.494 107.576 885.673 87.3243C907.783 68.0073 923.72 60.3038 951.673 51.3243C980.497 42.0647 1028.67 42.3243 1028.67 42.3243C1028.67 42.3243 987.423 21.2873 958.673 16.8243C926.38 11.8113 906.601 13.3684 875.173 22.3243C849.975 29.5047 835.652 35.6287 814.673 51.3243C789.47 70.1799 777.15 85.1216 763.173 113.324C746.848 146.265 745.673 205.824 745.673 205.824C745.673 205.824 721.582 214.235 705.673 217.824C671.678 225.495 651.255 219.092 617 225.5C581.426 232.155 528.173 251.824 528.173 251.824L570.673 151.324L454.673 196.824C454.673 196.824 443.906 183.781 434.673 176.824C426.216 170.452 411.673 162.824 411.673 162.824L446.173 96.8243L348.673 135.824C348.673 135.824 323.673 133.324 303.173 133.324C277.13 133.324 256.099 140.787 236.173 151.324C210.241 165.038 195.32 183.023 178.173 206.824C165.105 224.963 155.672 261.824 155.672 261.824C155.672 261.824 124.67 262.935 95.5 270.5C68.1067 277.604 62.1731 279 34.5 291.5C9.1128 302.967 2.11124 313.5 0.999925 323.5C-0.111389 333.5 1 346 7.49996 352.5C13.9999 359 24.4999 364 42.4999 358.5C66.8869 351.048 75.2939 343.075 101.5 336C125.094 329.63 155.672 333 155.672 333C157 347.5 159.75 358 164 366.5C168.25 375 176 387.5 182.673 392.324C182.673 392.324 148.269 399.789 126.173 404.324C100.44 409.606 86.1731 410.824 62.1731 418.824C44.669 424.659 34.3368 434.349 30.173 452.324C28.0579 461.455 29.4062 478.339 36.1731 484.824C48.1731 496.324 66.3397 502.491 84.173 496.324C102.006 490.158 120.119 480.564 144.673 477.824Z"/>
        <path d="M542 32H577V680H542V32Z"/>
        <path d="M591 32C591 49.6731 576.673 64 559 64C541.327 64 527 49.6731 527 32C527 14.3269 541.327 0 559 0C576.673 0 591 14.3269 591 32Z"/>
    </g>
    <g>
        <path d="M830 627.5C830 658.152 708.669 683 559 683C409.331 683 288 658.152 288 627.5C288 596.848 409.331 572 559 572C708.669 572 830 596.848 830 627.5Z"/>
    </g>
</svg>
